<?xml version="1.0" encoding="UTF-8" standalone="no"?>
<!DOCTYPE svg PUBLIC "-//W3C//DTD SVG 1.1//EN" "http://www.w3.org/Graphics/SVG/1.1/DTD/svg11.dtd">
<svg width="277pt" height="482pt" viewBox="0.00 0.00 277.00 482.00" xmlns="http://www.w3.org/2000/svg" xmlns:xlink="http://www.w3.org/1999/xlink">
<g id="graph0" class="graph" transform="scale(1 1) rotate(0) translate(18 464)"><title>G</title><polygon fill="white" stroke="transparent" points="-18,18 -18,-464 259,-464 259,18 -18,18"/>
<g id="node1" class="node"><title>a</title><path fill="none" stroke="black" d="M200.5,-446C200.5,-446 40.5,-446 40.5,-446 34.5,-446 28.5,-440 28.5,-434 28.5,-434 28.5,-396 28.5,-396 28.5,-390 34.5,-384 40.5,-384 40.5,-384 200.5,-384 200.5,-384 206.5,-384 212.5,-390 212.5,-396 212.5,-396 212.5,-434 212.5,-434 212.5,-440 206.5,-446 200.5,-446"/><text text-anchor="middle" x="120.5" y="-430.2" font-family="Arial" font-size="11.00">FOUNDATION</text><text text-anchor="middle" x="120.5" y="-418.2" font-family="Arial" font-size="11.00">Phase 0 Documentation Lock</text><text text-anchor="middle" x="120.5" y="-406.2" font-family="Arial" font-size="11.00">Phase 1 LIVE HQ CONTROL V1</text><text text-anchor="middle" x="120.5" y="-394.2" font-family="Arial" font-size="11.00">Phase 2 First-Class HQ Product</text></g>
<g id="node2" class="node"><title>b</title><path fill="none" stroke="black" d="M209,-359C209,-359 32,-359 32,-359 26,-359 20,-353 20,-347 20,-347 20,-309 20,-309 20,-303 26,-297 32,-297 32,-297 209,-297 209,-297 215,-297 221,-303 221,-309 221,-309 221,-347 221,-347 221,-353 215,-359 209,-359"/><text text-anchor="middle" x="120.5" y="-343.2" font-family="Arial" font-size="11.00">MISSION CORE</text><text text-anchor="middle" x="120.5" y="-331.2" font-family="Arial" font-size="11.00">Phase 3 Founder + Mission Core</text><text text-anchor="middle" x="120.5" y="-319.2" font-family="Arial" font-size="11.00">Phase 4 Projects / Tasks / Workforce</text><text text-anchor="middle" x="120.5" y="-307.2" font-family="Arial" font-size="11.00">Phase 5 Context + Mission Memory</text></g>
<g id="edge1" class="edge"><title>a-&gt;b</title><path fill="none" stroke="black" d="M120.5,-383.79C120.5,-378.16 120.5,-372.2 120.5,-366.38"/><polygon fill="black" stroke="black" points="122.95,-366.11 120.5,-359.11 118.05,-366.11 122.95,-366.11"/></g>
<g id="node3" class="node"><title>c</title><path fill="none" stroke="black" d="M228.5,-272C228.5,-272 12.5,-272 12.5,-272 6.5,-272 .5,-266 .5,-260 .5,-260 .5,-222 .5,-222 .5,-216 6.5,-210 12.5,-210 12.5,-210 228.5,-210 228.5,-210 234.5,-210 240.5,-216 240.5,-222 240.5,-222 240.5,-260 240.5,-260 240.5,-266 234.5,-272 228.5,-272"/><text text-anchor="middle" x="120.5" y="-256.2" font-family="Arial" font-size="11.00">AUTONOMOUS EXECUTION</text><text text-anchor="middle" x="120.5" y="-244.2" font-family="Arial" font-size="11.00">Phase 6 Orchestrator</text><text text-anchor="middle" x="120.5" y="-232.2" font-family="Arial" font-size="11.00">Phase 7 Truth + Evidence</text><text text-anchor="middle" x="120.5" y="-220.2" font-family="Arial" font-size="11.00">Phase 8 Authority + External Action Gateway</text></g>
<g id="edge2" class="edge"><title>b-&gt;c</title><path fill="none" stroke="black" d="M120.5,-296.79C120.5,-291.16 120.5,-285.2 120.5,-279.38"/><polygon fill="black" stroke="black" points="122.95,-279.11 120.5,-272.11 118.05,-279.11 122.95,-279.11"/></g>
<g id="node4" class="node"><title>d</title><path fill="none" stroke="black" d="M229,-185C229,-185 12,-185 12,-185 6,-185 0,-179 0,-173 0,-173 0,-123 0,-123 0,-117 6,-111 12,-111 12,-111 229,-111 229,-111 235,-111 241,-117 241,-123 241,-123 241,-173 241,-173 241,-179 235,-185 229,-185"/><text text-anchor="middle" x="120.5" y="-169.2" font-family="Arial" font-size="11.00">COMPANY BRAIN + PRODUCT FACTORY</text><text text-anchor="middle" x="120.5" y="-157.2" font-family="Arial" font-size="11.00">Phase 9 Mission Room</text><text text-anchor="middle" x="120.5" y="-145.2" font-family="Arial" font-size="11.00">Phase 10 Chief of Staff</text><text text-anchor="middle" x="120.5" y="-133.2" font-family="Arial" font-size="11.00">Phase 11 Search + Company Memory</text><text text-anchor="middle" x="120.5" y="-121.2" font-family="Arial" font-size="11.00">Phase 12 Product Factory</text></g>
<g id="edge3" class="edge"><title>c-&gt;d</title><path fill="none" stroke="black" d="M120.5,-209.95C120.5,-204.22 120.5,-198.12 120.5,-192.08"/><polygon fill="black" stroke="black" points="122.95,-192.03 120.5,-185.03 118.05,-192.03 122.95,-192.03"/></g>
<g id="node5" class="node"><title>e</title><path fill="none" stroke="black" d="M219,-86C219,-86 22,-86 22,-86 16,-86 10,-80 10,-74 10,-74 10,-12 10,-12 10,-6 16,0 22,0 22,0 219,0 219,0 225,0 231,-6 231,-12 231,-12 231,-74 231,-74 231,-80 225,-86 219,-86"/><text text-anchor="middle" x="120.5" y="-70.2" font-family="Arial" font-size="11.00">SCALE + ADVANCED AUTONOMY</text><text text-anchor="middle" x="120.5" y="-58.2" font-family="Arial" font-size="11.00">Phase 13 Reliability</text><text text-anchor="middle" x="120.5" y="-46.2" font-family="Arial" font-size="11.00">Phase 14 Cost / Intelligence Optimization</text><text text-anchor="middle" x="120.5" y="-34.2" font-family="Arial" font-size="11.00">Phase 15 Web + Desktop</text><text text-anchor="middle" x="120.5" y="-22.2" font-family="Arial" font-size="11.00">Phase 16 Products + Hardware</text><text text-anchor="middle" x="120.5" y="-10.2" font-family="Arial" font-size="11.00">Phase 17 Advanced Autonomous HQ</text></g>
<g id="edge4" class="edge"><title>d-&gt;e</title><path fill="none" stroke="black" d="M120.5,-110.98C120.5,-105.22 120.5,-99.18 120.5,-93.19"/><polygon fill="black" stroke="black" points="122.95,-93.19 120.5,-86.19 118.05,-93.19 122.95,-93.19"/></g>
</g></svg>
